<mxfile host="Electron" modified="2024-07-30T19:12:12.912Z" agent="Mozilla/5.0 (Windows NT 10.0; Win64; x64) AppleWebKit/537.36 (KHTML, like Gecko) draw.io/22.1.16 Chrome/120.0.6099.109 Electron/28.1.0 Safari/537.36" etag="TXGndCuDNn0jQ3RtRcvN" version="22.1.16" type="device">
  <diagram name="Page-1" id="nK2WXWRi20c_EiZxqpP3">
    <mxGraphModel dx="1013" dy="501" grid="1" gridSize="10" guides="1" tooltips="1" connect="1" arrows="1" fold="1" page="1" pageScale="1" pageWidth="800" pageHeight="170" math="0" shadow="0">
      <root>
        <mxCell id="0" />
        <mxCell id="1" parent="0" />
        <mxCell id="x96Iq67qb-lbHD9PgbYm-14" style="edgeStyle=orthogonalEdgeStyle;curved=1;rounded=0;orthogonalLoop=1;jettySize=auto;html=1;exitX=1;exitY=0.5;exitDx=0;exitDy=0;entryX=0;entryY=0.5;entryDx=0;entryDy=0;" parent="1" source="x96Iq67qb-lbHD9PgbYm-1" target="x96Iq67qb-lbHD9PgbYm-2" edge="1">
          <mxGeometry relative="1" as="geometry" />
        </mxCell>
        <mxCell id="x96Iq67qb-lbHD9PgbYm-1" value="Droite" style="ellipse;whiteSpace=wrap;html=1;aspect=fixed;" parent="1" vertex="1">
          <mxGeometry x="220" y="240" width="80" height="80" as="geometry" />
        </mxCell>
        <mxCell id="x96Iq67qb-lbHD9PgbYm-20" style="edgeStyle=orthogonalEdgeStyle;curved=1;rounded=0;orthogonalLoop=1;jettySize=auto;html=1;exitX=1;exitY=0.5;exitDx=0;exitDy=0;entryX=0;entryY=0.5;entryDx=0;entryDy=0;" parent="1" source="x96Iq67qb-lbHD9PgbYm-2" target="x96Iq67qb-lbHD9PgbYm-3" edge="1">
          <mxGeometry relative="1" as="geometry" />
        </mxCell>
        <mxCell id="x96Iq67qb-lbHD9PgbYm-2" value="Retenue" style="ellipse;whiteSpace=wrap;html=1;aspect=fixed;" parent="1" vertex="1">
          <mxGeometry x="380" y="240" width="80" height="80" as="geometry" />
        </mxCell>
        <mxCell id="x96Iq67qb-lbHD9PgbYm-3" value="Fin" style="ellipse;whiteSpace=wrap;html=1;aspect=fixed;" parent="1" vertex="1">
          <mxGeometry x="560" y="240" width="80" height="80" as="geometry" />
        </mxCell>
        <mxCell id="x96Iq67qb-lbHD9PgbYm-10" style="edgeStyle=orthogonalEdgeStyle;curved=1;rounded=0;orthogonalLoop=1;jettySize=auto;html=1;exitX=0;exitY=0;exitDx=0;exitDy=0;entryX=1;entryY=0;entryDx=0;entryDy=0;" parent="1" source="x96Iq67qb-lbHD9PgbYm-1" target="x96Iq67qb-lbHD9PgbYm-1" edge="1">
          <mxGeometry relative="1" as="geometry">
            <Array as="points">
              <mxPoint x="200" y="252" />
              <mxPoint x="200" y="180" />
              <mxPoint x="320" y="180" />
              <mxPoint x="320" y="252" />
            </Array>
          </mxGeometry>
        </mxCell>
        <mxCell id="x96Iq67qb-lbHD9PgbYm-13" value="1, 0&amp;nbsp;→ R" style="text;strokeColor=none;align=center;fillColor=none;html=1;verticalAlign=middle;whiteSpace=wrap;rounded=0;" parent="1" vertex="1">
          <mxGeometry x="230" y="180" width="60" height="30" as="geometry" />
        </mxCell>
        <mxCell id="x96Iq67qb-lbHD9PgbYm-17" value="␣&amp;nbsp;→ L" style="text;strokeColor=none;align=center;fillColor=none;html=1;verticalAlign=middle;whiteSpace=wrap;rounded=0;" parent="1" vertex="1">
          <mxGeometry x="310" y="280" width="60" height="30" as="geometry" />
        </mxCell>
        <mxCell id="x96Iq67qb-lbHD9PgbYm-18" style="edgeStyle=orthogonalEdgeStyle;curved=1;rounded=0;orthogonalLoop=1;jettySize=auto;html=1;exitX=0;exitY=0;exitDx=0;exitDy=0;entryX=1;entryY=0;entryDx=0;entryDy=0;" parent="1" edge="1">
          <mxGeometry relative="1" as="geometry">
            <mxPoint x="392" y="252" as="sourcePoint" />
            <mxPoint x="448" y="252" as="targetPoint" />
            <Array as="points">
              <mxPoint x="360" y="252" />
              <mxPoint x="360" y="180" />
              <mxPoint x="480" y="180" />
              <mxPoint x="480" y="252" />
            </Array>
          </mxGeometry>
        </mxCell>
        <mxCell id="x96Iq67qb-lbHD9PgbYm-19" value="1 → L" style="text;strokeColor=none;align=center;fillColor=none;html=1;verticalAlign=middle;whiteSpace=wrap;rounded=0;" parent="1" vertex="1">
          <mxGeometry x="390" y="180" width="60" height="30" as="geometry" />
        </mxCell>
        <mxCell id="x96Iq67qb-lbHD9PgbYm-21" value="0, ␣&amp;nbsp;→ 1, L" style="text;strokeColor=none;align=center;fillColor=none;html=1;verticalAlign=middle;whiteSpace=wrap;rounded=0;" parent="1" vertex="1">
          <mxGeometry x="480" y="280" width="60" height="30" as="geometry" />
        </mxCell>
      </root>
    </mxGraphModel>
  </diagram>
</mxfile>
